<svg id="Layer_1" data-name="Layer 1" xmlns="http://www.w3.org/2000/svg" viewBox="0 0 1596.17 6599.81"><defs><style>.cls-1{fill:#f2f6f7;}.cls-2{fill:#e1e270;opacity:0.3;}.cls-2,.cls-3{isolation:isolate;}.cls-3{fill:#d7ecf2;opacity:0.5;}</style></defs><title>bg</title><path class="cls-1" d="M1625.25,1879.1s19.33,1251.56-72.67,1932.44-329.51,1281.34-180.75,1932.88l212.75,177.9s100-43.47,84-295.75S1625.25,1879.1,1625.25,1879.1Z"/><path id="_Path_" data-name=" Path " class="cls-2" d="M210.82,2421.34s88,156,139,467.87,112,1087.24,47,1706.6-182,1047.16-156,1218H-47V2421.34Z"/><circle id="_Path_2" data-name=" Path 2" class="cls-3" cx="1278" cy="6478.76" r="318"/><circle id="_Path_3" data-name=" Path 3" class="cls-3" cx="192.58" cy="3250.6" r="245.72"/><circle id="_Path_4" data-name=" Path 4" class="cls-3" cx="1595.25" cy="4089.73" r="245.72"/><path id="_Path_5" data-name=" Path 5" class="cls-1" d="M1087.79-1.73s-93.72,154-580,259.27c-255.32,55.25-446.14,312-481.21,453.75-34.31,138.68-47.5,392-76,723.5l1-12-57.36-154.42L-6-1.73Z"/><circle id="_Path_6" data-name=" Path 6" class="cls-3" cx="235.86" cy="190.8" r="318"/><path id="_Path_7" data-name=" Path 7" class="cls-1" d="M1136.58-1.66s16.6,184.5,162.93,287.27,262.88,412.84,287.07,841.25,3.1-1128.52,3.1-1128.52Z"/><path id="_Path_8" data-name=" Path 8" class="cls-3" d="M1382.41-1.66s-77.52,297.13,21.51,534.13,196.52,231.27,196.52,231.27l-12.1-765.4Z"/><circle id="_Path_9" data-name=" Path 9" class="cls-2" cx="1515" cy="1372.03" r="318"/><circle id="_Path_10" data-name=" Path 10" class="cls-2" cx="1561" cy="2959.6" r="318"/><circle id="_Path_11" data-name=" Path 11" class="cls-2" cx="1555.25" cy="4443.48" r="318"/><circle id="_Path_12" data-name=" Path 12" class="cls-2" cx="1502.09" cy="6671.23" r="192.47"/><path class="cls-1" d="M1.28,1351s8.35,224.09,101.36,357.62S299.74,1866,315.31,2010.31c9.34,86.56,16.25,200.91-150.8,261-171,61.5-301.9-179.54-301.9-179.54L2.36,1337.59Z"/><circle id="_Path_13" data-name=" Path 13" class="cls-3" cx="1622.57" cy="1822.86" r="330.04"/><path id="_Path_14" data-name=" Path 14" class="cls-2" d="M-47,1076.09S16.16,953,257.79,928c227.95-23.58,474,274.24,290.18,573-89.52,145.49-327.39,267.58-409.25,367.22-74.34,90.49-291.93,321.44,72.07,553.12H-47Z"/></svg>