<svg xmlns="http://www.w3.org/2000/svg" xmlns:xlink="http://www.w3.org/1999/xlink" viewBox="0 0 500.26 449.64"><defs><style>.cls-1{fill:#d7ecf2;}.cls-2{fill:#26283c;}.cls-3{fill:#89b6e2;}.cls-4{fill:#cad3eb;}.cls-5{fill:#153f69;}.cls-6{fill:#eec3ad;}.cls-7{fill:#204794;}.cls-8{fill:#df987c;}.cls-9{fill:url(#linear-gradient);}.cls-10{fill:url(#linear-gradient-2);}.cls-11{fill:#b9be44;}.cls-12{fill:#e1e270;}.cls-13{fill:#d85550;}.cls-14{fill:#ee8d8d;}.cls-15{fill:#1084b9;}.cls-16{fill:#fff;}.cls-17{fill:#092a38;}.cls-18{fill:url(#linear-gradient-3);}.cls-19{fill:#d82941;}.cls-20{fill:#1d93d0;}</style><linearGradient id="linear-gradient" x1="69.68" y1="384.42" x2="297.15" y2="222.61" gradientUnits="userSpaceOnUse"><stop offset="0" stop-color="#623188"/><stop offset="0.16" stop-color="#d81b5c"/><stop offset="0.29" stop-color="#e74238"/><stop offset="0.41" stop-color="#ea5b2b"/><stop offset="0.52" stop-color="#f6e83a"/><stop offset="0.66" stop-color="#8cbf44"/><stop offset="0.77" stop-color="#45ac4c"/><stop offset="0.89" stop-color="#1c75bb"/><stop offset="1" stop-color="#2c3a8c"/></linearGradient><linearGradient id="linear-gradient-2" x1="183.5" y1="357.1" x2="27.16" y2="135.89" xlink:href="#linear-gradient"/><linearGradient id="linear-gradient-3" x1="21.65" y1="158.87" x2="426.6" y2="158.87" gradientUnits="userSpaceOnUse"><stop offset="0" stop-color="#623188"/><stop offset="0.16" stop-color="#d81b5c"/><stop offset="0.29" stop-color="#e74238"/><stop offset="0.41" stop-color="#ea5b2b"/><stop offset="0.52" stop-color="#f8ec6e"/><stop offset="0.66" stop-color="#8cbf44"/><stop offset="0.77" stop-color="#45ac4c"/><stop offset="0.89" stop-color="#1c75bb"/><stop offset="1" stop-color="#2c3a8c"/></linearGradient></defs><title>Asset 1</title><g id="Layer_2" data-name="Layer 2"><g id="background"><path id="_Path_" data-name="&lt;Path&gt;" class="cls-1" d="M381.61,106s16.37-31,7-57.87S337.77-26.24,263,18.23c0,0-23.74,17.63-84.88,3.07S91,35.09,81,59.62s-13,40.8-9.2,60.26,17.63,30.06,17.63,46.61-7.67,48.31-7.67,48.31S60.3,247.94,59.53,277.59s12.23,74.88,67.83,61.08S273.6,326,273.6,326s91.19,21.05,149.76-41,33.08-98.55,30.11-102.94-20.89-21.25-53.33-3.62S345.68,162.34,381.61,106Z"/><path id="_Path_2" data-name="&lt;Path&gt;" class="cls-2" d="M192.73,173.5h83.35s37.85,4.12,40.4-32.8c0,0-7-54.88-15-82.55S276.09,4.6,244.42,6.4s-50,6.47-62.69,52.82S158.15,176.37,192.73,173.5Z"/><path id="_Path_3" data-name="&lt;Path&gt;" class="cls-3" d="M365.69,402.69c20.83,11.45,39.81,24.74,61.87,31.68q9.76-2,18.39-4.28c-27.19-9.5-53.54-19.19-79.87-30.75C365.18,399.89,366.68,401.71,365.69,402.69Z"/><path id="_Path_4" data-name="&lt;Path&gt;" class="cls-4" d="M407.9,389.8c30.75-3.84,58.36,9.64,87.33,18.5,3.3-3.35,5-6.82,5-10.37,0-28.56-112-51.71-250.13-51.71S0,369.37,0,397.93c0,11,16.54,21.15,44.75,29.52-7.46-5.44-13.93-11.67-17.91-20.06,19.93-32.83,68-25.79,96.14-14.07,16.29,7.13,20.21,31.93,28.63,52.16q9.47.84,19.33,1.52c-5.75-11.45-12-22.6-18.65-33.75,57.45-9.38,119.59-11.72,178.22,1.17,15.34,2.88,27.54,15.94,39.17,28.94,21.37-2.41,40.85-5.44,57.87-9-22.06-6.94-41-20.23-61.87-31.68,1-1-.51-2.8.39-3.35l-.39-.17.39.17a1.48,1.48,0,0,1,.78-.17,1.48,1.48,0,0,0-.78.17c26.33,11.57,52.68,21.25,79.87,30.75,5.31-1.38,10.31-2.82,14.93-4.31-21.5-6.79-38.3-9.76-61.19-26.62C395,394.49,402,389.8,407.9,389.8Z"/><path id="_Path_5" data-name="&lt;Path&gt;" class="cls-3" d="M123,393.31c-28.14-11.72-76.21-18.76-96.14,14.07,4,8.39,10.45,14.62,17.91,20.06,26.6,7.9,63.59,14.18,106.87,18C143.19,425.24,139.27,400.44,123,393.31Z"/><path id="_Path_6" data-name="&lt;Path&gt;" class="cls-3" d="M330.51,414.42c-58.62-12.9-120.77-10.55-178.22-1.17,6.69,11.15,12.9,22.3,18.65,33.75,24.89,1.72,51.51,2.65,79.19,2.65a1082.53,1082.53,0,0,0,119.55-6.28C358.06,430.36,345.85,417.29,330.51,414.42Z"/><path id="_Path_7" data-name="&lt;Path&gt;" class="cls-3" d="M495.23,408.3c-29-8.86-56.58-22.35-87.33-18.5-5.86,0-14.22,4.81-9.35,8.78,19.91,16.23,40.84,20.42,62.33,27.21C477.18,420.53,489,414.63,495.23,408.3Z"/><g id="_Group_" data-name="&lt;Group&gt;"><path id="_Compound_Path_" data-name="&lt;Compound Path&gt;" class="cls-5" d="M446.42,391.32a13.79,13.79,0,0,1-13.78-13.78V356.73a13.78,13.78,0,0,1,27.55,0v20.81A13.79,13.79,0,0,1,446.42,391.32Zm0-40.16a5.58,5.58,0,0,0-5.57,5.57v20.81a5.57,5.57,0,0,0,11.14,0V356.73A5.58,5.58,0,0,0,446.42,351.16Z"/></g><path id="_Path_8" data-name="&lt;Path&gt;" class="cls-6" d="M316.12,180.91s11.58-.59,16,4.69,27,88.23,27,88.23L366.69,307s5,19.35-2.34,27-30.23,29-30.23,29V309.88L315,264.78S303.66,193.51,316.12,180.91Z"/><path id="_Path_9" data-name="&lt;Path&gt;" class="cls-6" d="M169.12,182.67s-12.9,5-18.47,17-23.74,75.92-23.74,75.92L114,319s-5.57,16.41-1.76,23.16,34,27,46.61,32l3.81-76.51,14.66-39.86S199.31,178.27,169.12,182.67Z"/><path id="_Path_10" data-name="&lt;Path&gt;" class="cls-7" d="M267.87,163.71a6.47,6.47,0,0,1,4,0c2.64.64,41.77,16.9,44.26,17.2s-4,44.85,0,62.73-10.7,48.66-10.7,48.66H189.93s-12.6-23.74-12.6-34.59,10.26-71.52-8.21-75l45.51-15.44Z"/><path id="_Path_11" data-name="&lt;Path&gt;" class="cls-8" d="M215.78,142.5s1.79,13.45-1.14,23.11c0,0,1.17,18.24,25.4,18.24h3.34c24.23,0,25.4-18.24,25.4-18.24-2.93-9.65-1.14-23.11-1.14-23.11"/><path id="_Path_12" data-name="&lt;Path&gt;" class="cls-6" d="M196.85,76.69A113.12,113.12,0,0,0,200.54,112c5.06,17.91,10.54,26.54,13.84,31.3,3.17,4.56,9.82,13.88,25.4,15.79,14.79,1.82,30.41-13.85,35.15-24.57,8.73-19.71,10.1-62,8.17-71.2s-7.35-13-12.54-14.91S251.87,45.2,243.1,58.62,217.12,82.59,196.85,76.69Z"/><path id="_Path_13" data-name="&lt;Path&gt;" class="cls-9" d="M176.55,284.48s19-34.78,36.74-47.1c13.75-9.52,28.34-11.53,39.28-6.84s24.23,18.76,20.71,53.93H245.72s2.54-12.31.2-17.59-4.89-11.14-16.22-7.62-19.54,26.58-19.54,26.58Z"/><path id="_Path_14" data-name="&lt;Path&gt;" class="cls-10" d="M150.65,295.23s-11.43,9.09-18.17,6.16-14.66-5.86-13.48-15.54,9.86-17,9.86-17l12.61-42.32s-23.05,10.4-38.29,35.61-7,44.85,2.64,55.69,32,13.19,49,5"/><path id="_Path_15" data-name="&lt;Path&gt;" class="cls-8" d="M232.92,116.33s4.21,1.76,7.33.39,10.84-2.44,10.84-1S242.4,124,232.92,116.33Z"/><g id="_Group_2" data-name="&lt;Group&gt;"><path id="_Path_16" data-name="&lt;Path&gt;" class="cls-11" d="M359.63,394.35l-.61-.27-7.58,0,3.88,5.3A6.64,6.64,0,0,1,359.63,394.35Z"/><path id="_Path_17" data-name="&lt;Path&gt;" class="cls-12" d="M416.34,419.65l-56.71-25.31a6.64,6.64,0,0,0-4.31,5.06l.52.71,54.47,29.24c-.74-2.29.48-5,1.23-7.26A9.1,9.1,0,0,1,416.34,419.65Z"/><path id="_Path_18" data-name="&lt;Path&gt;" class="cls-11" d="M410.31,429.36l.49.27s2.93,1.86,6.2-2.1a5.75,5.75,0,0,0,0-7.57l-.66-.3a5.81,5.81,0,0,0-4.81,2.45C409.92,425.1,409.57,427.07,410.31,429.36Z"/><rect id="_Rectangle_" data-name="&lt;Rectangle&gt;" class="cls-5" x="377.51" y="417.45" width="31.11" height="3.08" rx="1.09" ry="1.09" transform="translate(211.21 -125.97) rotate(24.72)"/></g><path id="_Path_19" data-name="&lt;Path&gt;" class="cls-13" d="M415.18,331.21c-9.94.68-17.31,3-17.54,5.74h0v58.92c0,2.93,8.09,5.38,18.85,6C416.13,378.07,414.51,355,415.18,331.21Z"/><path id="_Path_20" data-name="&lt;Path&gt;" class="cls-14" d="M430.14,401.5c-1.62-23.38-.85-46.75-.74-70.13-2.54-.24-5.26-.38-8.12-.38-2.11,0-4.15.08-6.1.21-.67,23.81.95,46.86,1.28,70.61,1.56.08,3.17.13,4.82.13A86.24,86.24,0,0,0,430.14,401.5Z"/><path id="_Path_21" data-name="&lt;Path&gt;" class="cls-13" d="M444.92,336.94c-.22-2.57-6.62-4.73-15.52-5.57-.11,23.38-.88,46.75.74,70.13,8.68-.9,14.81-3.08,14.81-5.64V336.94Z"/><ellipse id="_Path_22" data-name="&lt;Path&gt;" class="cls-5" cx="421.28" cy="337.53" rx="20.74" ry="4.54"/><path id="_Compound_Path_2" data-name="&lt;Compound Path&gt;" class="cls-15" d="M259,82.94c-5.22.63-8.38,1.78-13.25,5.22a13.4,13.4,0,0,1-3.69,2l0-.21a.91.91,0,0,1-.53.33,2.39,2.39,0,0,1-1.13,0,.91.91,0,0,1-.53-.33l0,.21a13.4,13.4,0,0,1-3.69-2c-4.87-3.43-8-4.59-13.25-5.22s-22-3-30.88,1.88l1,7.41s2.4-2.09,3.55,0,1.88,9,2.92,12,5,7,10.54,8.56,10,1.36,16.17,0,7.51-4.7,9-8.66S235.54,96.2,241,95c5.44,1.21,4.24,5.22,5.69,9.13s2.82,7.3,9,8.66,10.64,1.57,16.17,0,9.5-5.53,10.54-8.56,1.77-9.91,2.92-12,3.55,0,3.55,0l1-7.41C281,79.91,264.2,82.31,259,82.94ZM232.38,103c-1,3.05-2.59,4.86-7.41,6.29-4.67,1.38-13.69.44-17.53-.81s-5.09-6.18-5.09-6.18A103.84,103.84,0,0,1,200,90.19c-.26-3.29,4.37-4.86,7-5s14.4.05,18.39,1.77c4.34,1.87,5.6,3.21,6.42,5.09A19.4,19.4,0,0,1,232.38,103Zm47.24-.7s-1.25,4.93-5.09,6.18-12.86,2.19-17.53.81c-4.82-1.43-6.44-3.23-7.41-6.29a19.4,19.4,0,0,1,.6-11c.82-1.88,2.08-3.21,6.42-5.09,4-1.72,15.81-1.93,18.39-1.77s7.21,1.72,7,5A103.83,103.83,0,0,1,279.62,102.29Z"/><path id="_Compound_Path_3" data-name="&lt;Compound Path&gt;" class="cls-16" d="M331,423.52H163.23a11.49,11.49,0,0,1-11.46-11.46l-7-120.17a11.49,11.49,0,0,1,11.46-11.46H338.06a11.49,11.49,0,0,1,11.46,11.46l-7,120.17A11.49,11.49,0,0,1,331,423.52Z"/><circle id="_Path_23" data-name="&lt;Path&gt;" class="cls-12" cx="246.48" cy="353.84" r="12.62"/><path id="_Path_24" data-name="&lt;Path&gt;" class="cls-2" d="M246,82.82s-.13-5.94,2.8-7.45,20.1-6.52,31-.17c0,0,2.74,1.38,1.91,2S264.35,75.12,246,82.82Z"/><path id="_Path_25" data-name="&lt;Path&gt;" class="cls-2" d="M235.41,82.82s.13-5.94-2.8-7.45-20.1-6.52-31-.17c0,0-2.74,1.38-1.91,2S217.06,75.12,235.41,82.82Z"/><g id="_Group_3" data-name="&lt;Group&gt;"><polygon id="_Path_26" data-name="&lt;Path&gt;" class="cls-16" points="225.53 128.22 223.66 128.56 225.96 132.4 238.23 137.43 247.61 136.75 255.88 133.21 260.14 128.22 254.6 129.16 239.43 129.67 225.53 128.22"/><path id="_Compound_Path_4" data-name="&lt;Compound Path&gt;" class="cls-13" d="M249,126a23.21,23.21,0,0,0-5.34,1.47,10.57,10.57,0,0,1-1.62.74c-.41-.06-.85-.48-1.41-.72A25.27,25.27,0,0,0,235,126c-2-.26-13.89,1.11-13.89,1.11s0,6.14,8.18,13.47a21.29,21.29,0,0,0,5.24,3.58h0a18,18,0,0,0,12.48.83,15.66,15.66,0,0,0,5.7-2.83l.08-.06h0c.6-.45,1.21-.95,1.85-1.52,8.18-7.33,8.18-13.47,8.18-13.47S251,125.75,249,126Zm-7,9.63a24.33,24.33,0,0,1-17-6.48,70.54,70.54,0,0,0,34,0A24.33,24.33,0,0,1,242,135.64Z"/><path id="_Path_27" data-name="&lt;Path&gt;" class="cls-17" d="M225,129.16a19.82,19.82,0,0,0,17.67,9.69s11.08-.57,16.37-9.69C259,129.16,243.52,142.32,225,129.16Z"/></g><path id="_Path_28" data-name="&lt;Path&gt;" class="cls-18" d="M425.86,140.38S412.86,79.82,340.4,93h0l-.07,0c-1.44.26-2.89.54-4.37.87l.08.31-25.48,7L314,122.82l31.94-9.14h0c6.15-1.29,17.93-2.29,33.18,3.31,22.86,8.39,25.36,33.08,22.32,45.32S385.21,200.42,332,200.25s-112.2-43.89-112.2-43.89l-67.22-43.89S119.41,89.74,86.88,92.83s-54.94,23.76-62.2,48.34-2.09,53.84,22.4,73c27.29,21.38,66.62,11.7,99.14-3.34,6.49-23.32,22.89-28.19,22.89-28.19L196,173.18c-11.31,2.37-17.29-3-20.26-7.52-10,7.17-30.53,21-47.57,27.71-11.51,4.51-41.54,11.07-58.53,2.92S42,176.74,44.46,155.1,71,118.63,80.61,116.91s25.16-5.43,58.12,13,70.77,45.87,70.77,45.87S252.68,201,271,209.14s78.69,28.54,121.13-1.28S425.86,140.38,425.86,140.38Z"/><path id="_Path_29" data-name="&lt;Path&gt;" class="cls-19" d="M28.74,404.06l-5.86,4s-2.27,2.3.77,4.65,55.25,12,55.25,12Z"/><path id="_Path_30" data-name="&lt;Path&gt;" class="cls-16" d="M27.43,391.6v18.17S76,425.34,78.71,424.49s3.8-8.7,0-11.34S27.43,391.6,27.43,391.6Z"/><path id="_Path_31" data-name="&lt;Path&gt;" class="cls-19" d="M78.43,414.76l-51.3-20.52s-5.72-4-2.49-7.33,47.49-22.72,47.49-22.72A7.61,7.61,0,0,1,80,362.58c5,1.61,57.31,21.25,57.31,21.25s2.49,2.2,0,8.35-58.63,32.3-58.63,32.3S82.68,419.16,78.43,414.76Z"/><path id="_Path_32" data-name="&lt;Path&gt;" class="cls-5" d="M88.5,365.63,36.66,393.31s-2.49,1.6-2.49,3.3S35.29,416,35.29,416l3.51.78L38,398.88s0-2.93,1.61-3.22,51.86-28.95,51.86-28.95Z"/><g id="_Group_4" data-name="&lt;Group&gt;"><path id="_Path_33" data-name="&lt;Path&gt;" class="cls-20" d="M338.11,53.44l-.29.11a2.93,2.93,0,0,1-3.67-1.93l-5.5-17.68,15.67.59-4-17.09,18-.26L355,1.63l21.1,2.71a2.93,2.93,0,0,1-.75,5.82L362.48,8.5l3.1,14.45-17.87.26,4.07,17.48-15.06-.57,3,9.77A2.93,2.93,0,0,1,338.11,53.44Z"/></g><g id="_Group_5" data-name="&lt;Group&gt;"><path id="_Path_34" data-name="&lt;Path&gt;" class="cls-19" d="M152.72,45.92A2.35,2.35,0,0,1,151,42l5.48-6.28-9.27-3.69,6.61-10.19-11.43-4.32,6-8.26-6.19-1.84A2.34,2.34,0,0,1,143.49,3L156,6.69l-6.28,8.66,11.13,4.2-6.67,10.27,10.11,4-9.84,11.27A2.34,2.34,0,0,1,152.72,45.92Z"/></g><g id="_Group_6" data-name="&lt;Group&gt;"><path id="_Path_35" data-name="&lt;Path&gt;" class="cls-19" d="M433.34,296a2.34,2.34,0,0,1-2.31-2l-2.14-13.66-13.1,7.07-5.25-17.1-15.61,8.78-3.68-14.68L382,270.48a2.34,2.34,0,1,1-2.59-3.91l14.74-9.77L398,272l15.33-8.62,5.28,17.2,13.91-7.5,3.17,20.2a2.35,2.35,0,0,1-2,2.68Z"/></g><g id="_Group_7" data-name="&lt;Group&gt;"><path id="_Compound_Path_5" data-name="&lt;Compound Path&gt;" class="cls-19" d="M417.72,89.41,400.38,72.07l17.34-17.34,17.34,17.34ZM407,72.07l10.71,10.71,10.71-10.71L417.72,61.36Z"/></g><g id="_Group_8" data-name="&lt;Group&gt;"><path id="_Compound_Path_6" data-name="&lt;Compound Path&gt;" class="cls-20" d="M75.6,303.06l-25.39-3.91,3.91-25.4,25.4,3.91Zm-18.71-8.81,13.81,2.13,2.13-13.81L59,280.44Z"/></g><g id="_Group_9" data-name="&lt;Group&gt;"><path id="_Path_36" data-name="&lt;Path&gt;" class="cls-7" d="M139.37,83.08a2.92,2.92,0,0,1-2.14-.93L111.58,54.82a2.93,2.93,0,0,1,4.28-4l25.65,27.33a2.93,2.93,0,0,1-2.14,4.94Z"/></g><g id="_Group_10" data-name="&lt;Group&gt;"><path id="_Path_37" data-name="&lt;Path&gt;" class="cls-20" d="M434.8,127.08a2.93,2.93,0,0,1-1.52-5.44l22-13.32a2.93,2.93,0,0,1,3,5l-22,13.32A2.93,2.93,0,0,1,434.8,127.08Z"/></g><g id="_Group_11" data-name="&lt;Group&gt;"><path id="_Path_38" data-name="&lt;Path&gt;" class="cls-19" d="M40,254.87a2.35,2.35,0,0,1-.73-4.58l24.41-8a2.35,2.35,0,0,1,1.46,4.46l-24.41,8A2.35,2.35,0,0,1,40,254.87Z"/></g><g id="_Group_12" data-name="&lt;Group&gt;"><path id="_Path_39" data-name="&lt;Path&gt;" class="cls-20" d="M471.8,248a2.93,2.93,0,0,1-1-.17l-37.38-13.46a2.93,2.93,0,1,1,2-5.52l37.38,13.46a2.93,2.93,0,0,1-1,5.69Z"/></g><polygon id="_Path_40" data-name="&lt;Path&gt;" class="cls-7" points="461.55 156.79 461.33 178.91 442.42 167.9 461.55 156.79"/><polygon id="_Path_41" data-name="&lt;Path&gt;" class="cls-20" points="63.35 63.39 81.44 76.12 61.63 85.44 63.35 63.39"/></g></g></svg>